<?xml version="1.0" encoding="utf-8"?>
<!-- Generator: Adobe Illustrator 15.1.0, SVG Export Plug-In . SVG Version: 6.00 Build 0)  -->
<!DOCTYPE svg PUBLIC "-//W3C//DTD SVG 1.1//EN" "http://www.w3.org/Graphics/SVG/1.1/DTD/svg11.dtd">
<svg version="1.1" id="Layer_1" xmlns="http://www.w3.org/2000/svg" xmlns:xlink="http://www.w3.org/1999/xlink" x="0px" y="0px"
      width="24px" height="42px" viewBox="0 0 24 42" enable-background="new 0 0 24 42" xml:space="preserve">
<path fill-rule="evenodd" clip-rule="evenodd" fill="#333333" d="M22.954,36.725L7.236,21.007L23.16,5.082h-0.001
  C23.68,4.543,24,3.809,24,3c0-1.657-1.343-3-3-3c-0.809,0-1.543,0.32-2.082,0.841L18.917,0.84l-18,18l0.001,0.001
  C0.353,19.387,0,20.151,0,21c0,0.002,0,0.005,0,0.007s0,0.004,0,0.006c0,0.848,0.353,1.614,0.918,2.159l-0.001,0.001l18,18
  l0.008-0.009C19.463,41.682,20.194,42,21,42c1.657,0,3-1.344,3-3C24,38.09,23.594,37.274,22.954,36.725"/>
</svg>
